<svg xmlns="http://www.w3.org/2000/svg" width="30" height="30" viewBox="0 0 30 30">
    <g id="그룹_56730" data-name="그룹 56730" transform="translate(-800.555 -132.62)">
        <rect id="사각형_6223" data-name="사각형 6223" width="30" height="30" transform="translate(800.555 132.62)" fill="none"/>
        <g id="그룹_57739" data-name="그룹 57739" transform="translate(805.25 138.74)">
            <g id="그룹_39042" data-name="그룹 39042" transform="translate(0.266 0.267)">
                <path id="패스_8443" data-name="패스 8443" d="M2.795,10.542,9.58,17.327a1.359,1.359,0,0,0,1.923,0l7.474-7.482A5.475,5.475,0,0,0,11.233,2.1l-.7.7L9.843,2.11A5.473,5.473,0,0,0,2.1,9.85l7.478,7.478a1.359,1.359,0,0,0,1.922,0l6.64-6.64.146-.146-.008-.007" transform="translate(-0.5 -0.5)" fill="none" stroke="#000" stroke-miterlimit="10" stroke-width="1.2"/>
                <path id="패스_8444" data-name="패스 8444" d="M23.222,14.05,19.077,9.9a.561.561,0,0,0-.793,0l-1.065,1.065a2.266,2.266,0,0,1-3.2-3.2l2.778-2.778" transform="translate(-6.757 -2.685)" fill="none" stroke="#000" stroke-miterlimit="10" stroke-width="1.2"/>
            </g>
        </g>
    </g>
</svg>
