<svg xmlns="http://www.w3.org/2000/svg" width="30" height="30" viewBox="0 0 30 30">
    <g id="그룹_56661" data-name="그룹 56661" transform="translate(-479 -350)">
        <g id="그룹_46662" data-name="그룹 46662" transform="translate(485.776 356.498)">
            <path id="패스_8706" data-name="패스 8706" d="M13.67,1.691h2.383a1,1,0,0,1,1,1V16.342a1,1,0,0,1-1,1H1.6a1,1,0,0,1-1-1V2.686a1,1,0,0,1,1-1H3.687" transform="translate(-0.6 -0.333)" fill="none" stroke="#000" stroke-linecap="round" stroke-linejoin="round" stroke-width="1.2"/>
            <path id="패스_8707" data-name="패스 8707" d="M3.081.6H13.216V.945A3.463,3.463,0,0,1,9.753,4.408H6.543A3.463,3.463,0,0,1,3.081.945Z" transform="translate(0.006 -0.6)" fill="none" stroke="#000" stroke-linecap="round" stroke-linejoin="round" stroke-width="1.2"/>
            <line id="선_154" data-name="선 154" x2="4.728" transform="translate(5.86 9.317)" fill="none" stroke="#000" stroke-linecap="round" stroke-miterlimit="10" stroke-width="1.2"/>
        </g>
        <rect id="사각형_7180" data-name="사각형 7180" width="30" height="30" transform="translate(479 350)" fill="none"/>
    </g>
</svg>
