<svg xmlns="http://www.w3.org/2000/svg" width="16.41" height="17.116" viewBox="0 0 16.41 17.116">
    <g id="그룹_57751" data-name="그룹 57751" transform="translate(-123.678 -556.884)">
        <g id="그룹_57750" data-name="그룹 57750" transform="translate(0 3)">
            <g id="패스_24327" data-name="패스 24327" transform="translate(124.678 553.884)" fill="none">
                <path d="M.847,0H13.562A1.847,1.847,0,0,1,15.41,1.847V15.269a1.847,1.847,0,0,1-1.847,1.847H.847A1.847,1.847,0,0,1-1,15.269V1.847A1.847,1.847,0,0,1,.847,0Z" stroke="none"/>
                <path d="M 0.8474740982055664 1.199996948242188 C 0.4904537200927734 1.199996948242188 0.2000036239624023 1.490456581115723 0.2000036239624023 1.847476959228516 L 0.2000036239624023 15.26885604858398 C 0.2000036239624023 15.62587642669678 0.4904537200927734 15.91633605957031 0.8474740982055664 15.91633605957031 L 13.56241321563721 15.91633605957031 C 13.91943359375 15.91633605957031 14.20988368988037 15.62587642669678 14.20988368988037 15.26885604858398 L 14.20988368988037 1.847476959228516 C 14.20988368988037 1.490456581115723 13.91943359375 1.199996948242188 13.56241321563721 1.199996948242188 L 0.8474740982055664 1.199996948242188 M 0.8474740982055664 -3.814697265625e-06 L 13.56241321563721 -3.814697265625e-06 C 14.58274364471436 -3.814697265625e-06 15.40988349914551 0.8271465301513672 15.40988349914551 1.847476959228516 L 15.40988349914551 15.26885604858398 C 15.40988349914551 16.28918647766113 14.58274364471436 17.11633682250977 13.56241321563721 17.11633682250977 L 0.8474740982055664 17.11633682250977 C -0.172856330871582 17.11633682250977 -0.9999961853027344 16.28918647766113 -0.9999961853027344 15.26885604858398 L -0.9999961853027344 1.847476959228516 C -0.9999961853027344 0.8271465301513672 -0.172856330871582 -3.814697265625e-06 0.8474740982055664 -3.814697265625e-06 Z" stroke="none" fill="#fb5230"/>
            </g>
        </g>
        <line id="선_158" data-name="선 158" x2="6.971" transform="translate(128.397 561.442)" fill="none" stroke="#fb5230" stroke-linecap="round" stroke-miterlimit="10" stroke-width="1.2"/>
        <line id="선_159" data-name="선 159" x2="6.971" transform="translate(128.397 565.442)" fill="none" stroke="#fb5230" stroke-linecap="round" stroke-miterlimit="10" stroke-width="1.2"/>
        <line id="선_160" data-name="선 160" x2="6.971" transform="translate(128.397 569.442)" fill="none" stroke="#fb5230" stroke-linecap="round" stroke-miterlimit="10" stroke-width="1.2"/>
    </g>
</svg>
