<svg xmlns="http://www.w3.org/2000/svg" width="30" height="30" viewBox="0 0 30 30">
    <g id="그룹_57776" data-name="그룹 57776" transform="translate(-133 -868)">
        <g id="그룹_57763" data-name="그룹 57763" transform="translate(5 5)">
            <g id="그룹_57760" data-name="그룹 57760">
                <g id="사각형_21320" data-name="사각형 21320" transform="translate(143 877)" fill="none" stroke="#fb5230" stroke-width="1.2">
                    <path d="M3,0H6A3,3,0,0,1,9,3V4A1,1,0,0,1,8,5H1A1,1,0,0,1,0,4V3A3,3,0,0,1,3,0Z" stroke="none"/>
                    <path d="M3-.6H6A3.6,3.6,0,0,1,9.6,3V4A1.6,1.6,0,0,1,8,5.6H1A1.6,1.6,0,0,1-.6,4V3A3.6,3.6,0,0,1,3-.6Z" fill="none"/>
                </g>
                <g id="타원_1594" data-name="타원 1594" transform="translate(144 870)" fill="none" stroke="#fb5230" stroke-width="1.2">
                    <circle cx="3.5" cy="3.5" r="3.5" stroke="none"/>
                    <circle cx="3.5" cy="3.5" r="2.9" fill="none"/>
                </g>
            </g>
            <g id="그룹_57770" data-name="그룹 57770" transform="translate(-9 2)">
                <g id="사각형_21320-2" data-name="사각형 21320" transform="translate(143 877)" fill="none" stroke="#fb5230" stroke-width="1.2">
                    <path d="M3,0H6A3,3,0,0,1,9,3V4A1,1,0,0,1,8,5H1A1,1,0,0,1,0,4V3A3,3,0,0,1,3,0Z" stroke="none"/>
                    <path d="M3-.6H6A3.6,3.6,0,0,1,9.6,3V4A1.6,1.6,0,0,1,8,5.6H1A1.6,1.6,0,0,1-.6,4V3A3.6,3.6,0,0,1,3-.6Z" fill="none"/>
                </g>
                <g id="타원_1594-2" data-name="타원 1594" transform="translate(144 870)" fill="none" stroke="#fb5230" stroke-width="1.2">
                    <circle cx="3.5" cy="3.5" r="3.5" stroke="none"/>
                    <circle cx="3.5" cy="3.5" r="2.9" fill="none"/>
                </g>
            </g>
        </g>
    </g>
</svg>
