<svg xmlns="http://www.w3.org/2000/svg" width="30" height="30" viewBox="0 0 30 30">
    <g id="그룹_57779" data-name="그룹 57779" transform="translate(-148 -1026)">

        <g id="그룹_57753" data-name="그룹 57753" transform="translate(31.117 473.116)">
            <g id="그룹_57750" data-name="그룹 57750" transform="translate(0 5)">
                <g id="패스_24327" data-name="패스 24327" transform="translate(124.678 553.884)" fill="none">
                    <path d="M.847,0H13.562A1.847,1.847,0,0,1,15.41,1.847V15.269a1.847,1.847,0,0,1-1.847,1.847H.847A1.847,1.847,0,0,1-1,15.269V1.847A1.847,1.847,0,0,1,.847,0Z" stroke="none"/>
                    <path d="M 0.8474740982055664 1.199996948242188 C 0.4904537200927734 1.199996948242188 0.2000036239624023 1.490456581115723 0.2000036239624023 1.847476959228516 L 0.2000036239624023 15.26885604858398 C 0.2000036239624023 15.62587642669678 0.4904537200927734 15.91633605957031 0.8474740982055664 15.91633605957031 L 13.56241321563721 15.91633605957031 C 13.91943359375 15.91633605957031 14.20988368988037 15.62587642669678 14.20988368988037 15.26885604858398 L 14.20988368988037 1.847476959228516 C 14.20988368988037 1.490456581115723 13.91943359375 1.199996948242188 13.56241321563721 1.199996948242188 L 0.8474740982055664 1.199996948242188 M 0.8474740982055664 -3.814697265625e-06 L 13.56241321563721 -3.814697265625e-06 C 14.58274364471436 -3.814697265625e-06 15.40988349914551 0.8271465301513672 15.40988349914551 1.847476959228516 L 15.40988349914551 15.26885604858398 C 15.40988349914551 16.28918647766113 14.58274364471436 17.11633682250977 13.56241321563721 17.11633682250977 L 0.8474740982055664 17.11633682250977 C -0.172856330871582 17.11633682250977 -0.9999961853027344 16.28918647766113 -0.9999961853027344 15.26885604858398 L -0.9999961853027344 1.847476959228516 C -0.9999961853027344 0.8271465301513672 -0.172856330871582 -3.814697265625e-06 0.8474740982055664 -3.814697265625e-06 Z" stroke="none" fill="#fb5230"/>
                </g>
            </g>
            <path id="패스_24328" data-name="패스 24328" d="M0,0H12.78" transform="translate(125.492 561.442)" fill="none" stroke="#fb5230" stroke-linecap="round" stroke-width="3"/>
            <path id="패스_24329" data-name="패스 24329" d="M6.971,0" transform="translate(128.397 569.442)" fill="none" stroke="#fb5230" stroke-linecap="round" stroke-width="1.2"/>
            <g id="그룹_57754" data-name="그룹 57754" transform="translate(-0.045 1.5)">
                <circle id="타원_1588" data-name="타원 1588" cx="0.75" cy="0.75" r="0.75" transform="translate(126.678 563.442)" fill="#fb5230"/>
                <circle id="타원_1589" data-name="타원 1589" cx="0.75" cy="0.75" r="0.75" transform="translate(129.678 563.442)" fill="#fb5230"/>
                <circle id="타원_1590" data-name="타원 1590" cx="0.75" cy="0.75" r="0.75" transform="translate(132.678 563.442)" fill="#fb5230"/>
                <circle id="타원_1591" data-name="타원 1591" cx="0.75" cy="0.75" r="0.75" transform="translate(135.678 563.442)" fill="#fb5230"/>
            </g>
            <g id="그룹_57755" data-name="그룹 57755" transform="translate(-0.045 4.5)">
                <circle id="타원_1588-2" data-name="타원 1588" cx="0.75" cy="0.75" r="0.75" transform="translate(126.678 563.442)" fill="#fb5230"/>
                <circle id="타원_1589-2" data-name="타원 1589" cx="0.75" cy="0.75" r="0.75" transform="translate(129.678 563.442)" fill="#fb5230"/>
                <circle id="타원_1590-2" data-name="타원 1590" cx="0.75" cy="0.75" r="0.75" transform="translate(132.678 563.442)" fill="#fb5230"/>
                <circle id="타원_1591-2" data-name="타원 1591" cx="0.75" cy="0.75" r="0.75" transform="translate(135.678 563.442)" fill="#fb5230"/>
            </g>
            <g id="그룹_57756" data-name="그룹 57756" transform="translate(-0.045 7.5)">
                <circle id="타원_1588-3" data-name="타원 1588" cx="0.75" cy="0.75" r="0.75" transform="translate(126.678 563.442)" fill="#fb5230"/>
                <circle id="타원_1589-3" data-name="타원 1589" cx="0.75" cy="0.75" r="0.75" transform="translate(129.678 563.442)" fill="#fb5230"/>
                <circle id="타원_1590-3" data-name="타원 1590" cx="0.75" cy="0.75" r="0.75" transform="translate(132.678 563.442)" fill="#fb5230"/>
                <circle id="타원_1591-3" data-name="타원 1591" cx="0.75" cy="0.75" r="0.75" transform="translate(135.678 563.442)" fill="#fb5230"/>
            </g>
        </g>
    </g>
</svg>
