<svg xmlns="http://www.w3.org/2000/svg" width="34" height="34" viewBox="0 0 34 34">
    <g id="그룹_57628" data-name="그룹 57628" transform="translate(-18 -56)">
        <g id="그룹_57626" data-name="그룹 57626" transform="translate(-855.102 -386.648)">
            <g id="그룹_57627" data-name="그룹 57627" transform="translate(878.465 446.663)">
                <g id="그룹_57626-2" data-name="그룹 57626" transform="translate(0 0)">
                    <path id="패스_23518" data-name="패스 23518" d="M890.1,456.8a.854.854,0,0,1-.311-.059l-10.781-4.21a.856.856,0,0,1,0-1.6l10.781-4.21a.856.856,0,0,1,.623,0l10.781,4.21a.856.856,0,0,1,0,1.6l-10.781,4.21A.854.854,0,0,1,890.1,456.8Zm-8.427-5.067,8.427,3.291,8.427-3.291-8.427-3.291Z" transform="translate(-878.465 -446.663)" fill="#fc5230" stroke="#fc5230" stroke-width="0.7"/>
                </g>
            </g>
            <path id="패스_23519" data-name="패스 23519" d="M896.323,521.6a5.978,5.978,0,0,0-4.264,1.784l-1.511,1.511-1.511-1.511a5.979,5.979,0,0,0-4.263-1.784,5.846,5.846,0,0,0-4.077,9.98l5.716,5.716a.856.856,0,0,0,1.211,0h0a.856.856,0,0,0,0-1.211l-5.716-5.716a4.131,4.131,0,0,1-1.143-3.686,3.975,3.975,0,0,1,.654-1.576,4.138,4.138,0,0,1,6.335-.584l5.756,5.756a.856.856,0,0,0,1.211,0h0a.856.856,0,0,0,0-1.211l-2.963-2.963,1.522-1.522a4.244,4.244,0,0,1,2.816-1.267,4.132,4.132,0,0,1,3.585,1.8,3.972,3.972,0,0,1,.648,1.569,4.131,4.131,0,0,1-1.143,3.684l-5.111,5.111-8.964-8.964a.856.856,0,0,0-1.211,0h0a.856.856,0,0,0,0,1.211l9.565,9.565a.863.863,0,0,0,1.221,0l5.711-5.711a5.846,5.846,0,0,0-4.076-9.98Z" transform="translate(-0.447 -64.242)" fill="#fc5230" stroke="#fc5230" stroke-width="0.7"/>
        </g>
        <rect id="사각형_21289" data-name="사각형 21289" width="34" height="34" transform="translate(18 56)" fill="none"/>
    </g>
</svg>
