<svg xmlns="http://www.w3.org/2000/svg" width="30" height="30" viewBox="0 0 30 30">
    <g id="그룹_56463" data-name="그룹 56463" transform="translate(-108 -72)">
        <path id="패스_5708" data-name="패스 5708" d="M21.483,20.031l1.615-2.8a.681.681,0,0,0-.18-.88l-1.425-1.08a8.012,8.012,0,0,0,.069-1.013,7.642,7.642,0,0,0-.183-1.641l1.383-1.044a.677.677,0,0,0,.179-.88l-1.612-2.8a.678.678,0,0,0-.853-.285l-1.741.739a7.593,7.593,0,0,0-2.259-1.257l-.215-1.73a.68.68,0,0,0-.674-.595H12.354a.678.678,0,0,0-.673.595l-.216,1.73A7.6,7.6,0,0,0,9.041,8.486l-1.423-.6a.674.674,0,0,0-.845.285l-1.615,2.8a.678.678,0,0,0,.178.88l1.19.9a7.628,7.628,0,0,0,.016,3.082l-1.048.793a.677.677,0,0,0-.178.879l1.612,2.8a.68.68,0,0,0,.854.287l1.278-.54a7.622,7.622,0,0,0,2.775,1.5L12,22.843a.678.678,0,0,0,.673.595H15.9a.679.679,0,0,0,.674-.6l.19-1.524a7.6,7.6,0,0,0,2.47-1.592l1.4.59A.676.676,0,0,0,21.483,20.031Z" transform="translate(108.875 72.902)" fill="none" stroke="#000" stroke-width="1.5"/>
        <ellipse id="타원_389" data-name="타원 389" cx="3.325" cy="3.325" rx="3.325" ry="3.325" transform="translate(119.675 83.676)" fill="none" stroke="#000" stroke-width="1.5"/>
        <rect id="사각형_6223" data-name="사각형 6223" width="30" height="30" transform="translate(108 72)" fill="none"/>
    </g>
</svg>
