<svg xmlns="http://www.w3.org/2000/svg" width="40" height="40" viewBox="0 0 40 40">
    <g id="그룹_57736" data-name="그룹 57736" transform="translate(-26.866 -240.866)">
        <rect id="사각형_21307" data-name="사각형 21307" width="40" height="40" transform="translate(26.866 240.866)" fill="none"/>
        <path id="사각형_21313" data-name="사각형 21313" d="M2,0H4.5a2,2,0,0,1,2,2V9a0,0,0,0,1,0,0H0A0,0,0,0,1,0,9V2A2,2,0,0,1,2,0Z" transform="translate(44.143 264.53)" fill="none" stroke="#000" stroke-width="1.5"/>
        <path id="패스_4228" data-name="패스 4228" d="M1804.4,886.692V872.625a2.158,2.158,0,0,1,.854-1.72l9.431-7.164a2.162,2.162,0,0,1,2.617,0l9.4,7.162a2.158,2.158,0,0,1,.851,1.717v14.07a2.16,2.16,0,0,1-2.161,2.16H1806.56A2.16,2.16,0,0,1,1804.4,886.692Z" transform="translate(-1769.081 -615.322)" fill="none" stroke="#000" stroke-linecap="round" stroke-linejoin="round" stroke-width="1.5"/>
    </g>
</svg>
