<svg xmlns="http://www.w3.org/2000/svg" xmlns:xlink="http://www.w3.org/1999/xlink" width="46" height="46" viewBox="0 0 46 46">
  <defs>
    <linearGradient id="linear-gradient" x1="0.5" x2="0.5" y2="1" gradientUnits="objectBoundingBox">
      <stop offset="0" stop-color="#303030"/>
      <stop offset="1" stop-color="#171717"/>
    </linearGradient>
    <linearGradient id="linear-gradient-2" x1="0.5" x2="0.5" y2="1" gradientUnits="objectBoundingBox">
      <stop offset="0" stop-color="#7b7b7b"/>
      <stop offset="1" stop-color="#313131"/>
    </linearGradient>
  </defs>
  <g id="그룹_57796" data-name="그룹 57796" transform="translate(-37 -220)">
    <g id="그룹_57619" data-name="그룹 57619" transform="translate(-1423.506 -125.38)">
      <path id="패스_23508" data-name="패스 23508" d="M1480.556,380.444v13.791c0,2.511,5.48,4.547,12.241,4.547s12.241-2.036,12.241-4.547V380.444Z" transform="translate(-9.365 -16.402)" fill="url(#linear-gradient)"/>
      <line id="선_115" data-name="선 115" y1="5.717" transform="translate(1500.689 364.162)" fill="none" stroke="#272727" stroke-width="1.5"/>
      <path id="사각형_21286" data-name="사각형 21286" d="M1.5,0h0A1.5,1.5,0,0,1,3,1.5V6.255a0,0,0,0,1,0,0H0a0,0,0,0,1,0,0V1.5A1.5,1.5,0,0,1,1.5,0Z" transform="translate(1499.189 368.714)" fill="#ffc44e"/>
      <path id="패스_23509" data-name="패스 23509" d="M1502.084,363.893l-17.133-7.982a2.409,2.409,0,0,0-2.034,0l-17.133,7.982a.838.838,0,0,0,0,1.52l17.133,7.982a2.409,2.409,0,0,0,2.034,0l17.133-7.982A.838.838,0,0,0,1502.084,363.893Z" transform="translate(-0.503 -0.686)" fill="#333031"/>
    </g>
    <path id="패스_23510" data-name="패스 23510" d="M1502.084,363.893l-17.133-7.982a2.409,2.409,0,0,0-2.034,0l-17.133,7.982a.838.838,0,0,0,0,1.52l17.133,7.982a2.409,2.409,0,0,0,2.034,0l17.133-7.982A.838.838,0,0,0,1502.084,363.893Z" transform="translate(-1424.009 -126.087)" fill="url(#linear-gradient-2)"/>
    <rect id="사각형_21331" data-name="사각형 21331" width="46" height="46" transform="translate(37 220)" fill="none"/>
  </g>
</svg>
